<?xml version="1.0" encoding="UTF-8" standalone="no"?>
<!-- Created with Inkscape (http://www.inkscape.org/) -->

<svg
   xmlns:dc="http://purl.org/dc/elements/1.1/"
   xmlns:cc="http://creativecommons.org/ns#"
   xmlns:rdf="http://www.w3.org/1999/02/22-rdf-syntax-ns#"
   xmlns:svg="http://www.w3.org/2000/svg"
   xmlns="http://www.w3.org/2000/svg"
   xmlns:sodipodi="http://sodipodi.sourceforge.net/DTD/sodipodi-0.dtd"
   xmlns:inkscape="http://www.inkscape.org/namespaces/inkscape"
   width="189.83502mm"
   height="172.91658mm"
   viewBox="0 0 189.83502 172.91658"
   version="1.1"
   id="svg6958"
   inkscape:version="0.92pre1_64bit r15016"
   sodipodi:docname="Earth Quick Sketch.svg">
  <title
     id="title7000">Earth Quick Sketch</title>
  <defs
     id="defs6952" />
  <sodipodi:namedview
     id="base"
     pagecolor="#ffffff"
     bordercolor="#666666"
     borderopacity="1.0"
     inkscape:pageopacity="0.0"
     inkscape:pageshadow="2"
     inkscape:zoom="0.98994949"
     inkscape:cx="310.85507"
     inkscape:cy="332.05766"
     inkscape:document-units="mm"
     inkscape:current-layer="layer1"
     showgrid="false"
     fit-margin-top="10"
     fit-margin-left="10"
     fit-margin-right="10"
     fit-margin-bottom="10"
     inkscape:snap-global="false"
     inkscape:window-width="1366"
     inkscape:window-height="745"
     inkscape:window-x="-8"
     inkscape:window-y="-8"
     inkscape:window-maximized="1" />
  <metadata
     id="metadata6955">
    <rdf:RDF>
      <cc:Work
         rdf:about="">
        <dc:format>image/svg+xml</dc:format>
        <dc:type
           rdf:resource="http://purl.org/dc/dcmitype/StillImage" />
        <dc:title>Earth Quick Sketch</dc:title>
      </cc:Work>
    </rdf:RDF>
  </metadata>
  <g
     inkscape:label="Layer 1"
     inkscape:groupmode="layer"
     id="layer1"
     transform="translate(-11.271273,-21.175637)">
    <path
       inkscape:connector-curvature="0"
       id="path656"
       style="fill:#ffffff;fill-opacity:1;fill-rule:nonzero;stroke:none;stroke-width:3.06489611"
       d="M 86.976293,31.175637 C 67.701156,37.437176 51.190593,51.158752 41.085615,68.683799 29.44818,86.236474 19.631293,106.59048 21.500928,128.22246 c 0.680262,15.08541 7.744998,30.06359 20.544005,38.53803 20.721759,15.94976 48.342575,18.95334 73.640247,16.64235 18.79704,-2.92077 37.41321,-9.38465 52.93074,-20.51941 10.66587,-10.21227 17.29829,-24.0288 21.40523,-38.01397 3.18446,-17.33504 -0.77842,-35.555819 -10.06813,-50.426715 C 173.21329,59.611725 160.497,47.398109 144.8507,42.478936 129.39442,35.595169 112.53756,31.521936 95.573313,32.049118 92.698487,31.764155 89.848076,31.414902 86.976293,31.175637 Z" />
    <path
       inkscape:connector-curvature="0"
       id="path658"
       style="fill:#000000;fill-opacity:1;fill-rule:nonzero;stroke:none;stroke-width:3.06489611"
       d="m 132.67392,106.32688 c -0.95627,-8.020834 6.48839,-19.719519 15.43171,-15.217192 6.56197,5.709859 4.65862,15.456202 5.08772,23.238032 0.0521,8.63073 1.02986,17.24 2.15468,25.77577 -0.65593,9.54105 -13.0718,10.70262 -18.81851,4.76592 -5.75893,-5.93982 -13.1453,-8.15263 -19.65827,-2.34773 -6.44233,3.43571 -15.92517,3.2212 -19.575476,-4.05795 -7.971751,-11.95002 -5.6149,-31.7983 8.511266,-37.97713 8.79007,-2.476395 16.97954,7.0769 25.62251,2.61132 6.72748,1.32708 -9.98542,5.31456 -12.53541,1.92785 -7.2424,-5.198058 -16.51065,-2.77987 -20.185453,5.27772 -5.544354,9.6023 -3.736056,23.22883 4.441073,30.75932 7.34041,4.60649 14.12913,-3.15075 21.27649,-3.9629 10.03139,-3.04346 12.98901,11.98374 22.96218,8.67973 10.43903,-3.72381 1.43751,-15.81788 3.17223,-23.61196 -0.41963,-9.32342 0.93472,-19.3456 -2.73087,-28.095872 -7.95951,-7.603993 -10.35623,7.649952 -14.28239,11.851942 z" />
    <path
       inkscape:connector-curvature="0"
       id="path660"
       style="fill:#000000;fill-opacity:1;fill-rule:nonzero;stroke:none;stroke-width:3.06489611"
       d="m 152.18807,152.53936 c -10.21219,-5.35131 -7.26682,15.87617 0.32493,5.30231 2.65727,-3.02817 0.15638,-10.30723 -4.26325,-6.95432 5.57806,-7.15951 13.2189,4.79964 6.56198,9.51655 -5.5077,8.05759 -21.00074,-5.89073 -8.59712,-8.48668 1.9401,-0.48131 4.52692,-1.31795 5.97354,0.62206 z" />
    <path
       inkscape:connector-curvature="0"
       id="path662"
       style="fill:#000000;fill-opacity:1;fill-rule:nonzero;stroke:none;stroke-width:3.06489611"
       d="m 138.60141,84.740767 c -8.37026,2.356938 -14.64405,16.017173 -24.38735,9.755637 -6.33521,-7.361949 3.76976,-14.402011 10.84666,-14.592014 4.62188,-1.149322 19.26281,-3.941438 13.27711,4.643331 -4.95593,3.543012 1.24436,-5.038718 -4.41963,-4.346032 -6.77646,-0.04344 -17.1082,3.55526 -19.29963,9.948683 5.68849,9.1487 13.01664,-1.520209 18.26985,-5.253223 0.62554,-2.228185 10.71488,-2.467275 5.71299,-0.156382 z" />
    <path
       inkscape:connector-curvature="0"
       id="path664"
       style="fill:#000000;fill-opacity:1;fill-rule:nonzero;stroke:none;stroke-width:3.06489611"
       d="m 126.13646,74.396786 c -5.89075,9.096573 -18.28211,9.397 -25.66847,14.690014 -3.769856,6.715221 -0.515196,29.90729 -11.324849,26.08532 -3.59201,0.0521 -6.595589,-4.73829 -8.477475,-9.71872 -1.878757,-4.98051 -2.63278,-11.637432 -5.170513,-9.90272 -4.431782,3.015829 0.04344,6.95735 3.015916,13.09935 4.621872,9.397 -4.729169,12.91551 -7.827793,20.25591 -2.264935,8.29668 -9.602297,27.25923 -20.329414,23.38208 -6.096122,-4.94367 4.045605,-26.56646 -16.415604,-31.43966 -8.177134,-4.15291 -5.00501,-18.96559 4.287823,-22.603651 4.391992,-2.620443 10.019141,-1.927757 10.797577,-6.068495 0.790599,-4.131441 -5.231763,-8.909609 -5.936699,-13.136097 5.253223,-15.60954 23.63342,-29.355615 39.555551,-30.299555 10.797663,-0.898067 20.8076,-7.015561 31.85651,-5.28085 7.72354,0.3953 14.05562,5.519854 21.74242,6.059286 10.29802,-0.0087 11.22979,12.510917 3.3285,16.976494 -5.2441,4.321446 -10.53407,8.799274 -16.58111,11.934648 -5.8294,-0.0087 4.71684,-5.936699 6.53738,-7.242316 7.78184,-2.813574 18.48445,-14.257877 7.04006,-19.802318 -7.13814,-0.922481 -13.42115,-4.155943 -20.58075,-5.6639 -7.4722,-1.556957 -15.04865,0.168545 -21.993665,2.908621 -11.217549,2.553024 -23.897011,2.145388 -33.149966,10.034431 -7.435449,5.136805 -15.039442,14.067874 -14.034165,23.63342 2.68178,4.741419 6.994103,9.623755 4.060983,13.203602 -2.920784,3.579761 -12.238117,5.25626 -14.907646,8.27522 -8.115798,9.9486 -6.764222,15.82708 12.284161,19.55098 20.209869,3.95065 -0.202428,26.5297 4.201987,27.41543 5.722109,1.14941 13.326102,-32.11089 21.705578,-34.1582 6.742761,-6.55892 -5.03872,-13.28943 -7.040062,-19.572431 -4.931424,-10.28586 11.471843,-13.157643 13.638778,-3.175252 -0.14422,5.712986 2.920783,14.907643 10.09264,9.255993 4.799628,-5.483101 3.757602,-16.832446 12.486417,-18.533448 8.58477,-0.300601 15.55133,-8.943406 22.8059,-10.163186 z" />
    <path
       inkscape:connector-curvature="0"
       id="path666"
       style="fill:#000000;fill-opacity:1;fill-rule:nonzero;stroke:none;stroke-width:3.06489611"
       d="m 162.60563,87.983437 c -5.7466,4.802755 6.59568,6.022536 3.12313,0.469145 -8.89433,-1.247407 4.23882,-4.968172 3.23346,1.578417 -2.12089,7.830835 -15.88842,3.172125 -8.11884,-2.583692 l 0.93473,0.119024 z" />
    <path
       inkscape:connector-curvature="0"
       id="path668"
       style="fill:#000000;fill-opacity:1;fill-rule:nonzero;stroke:none;stroke-width:3.06489611"
       d="m 170.85332,77.878459 c -2.75234,2.755366 -1.19842,-4.379654 1.5692,0.840119 3.36221,4.968173 -9.50734,-1.112571 -1.5692,-0.840119 z" />
    <path
       inkscape:connector-curvature="0"
       id="path670"
       style="fill:#000000;fill-opacity:1;fill-rule:nonzero;stroke:none;stroke-width:3.06489611"
       d="m 178.12013,90.355666 c 1.413,2.562321 11.0643,8.906657 2.63583,6.200291 -5.48615,-1.532458 -6.33514,-14.904606 -2.74304,-11.419805 -2.81357,4.321533 11.0397,13.298649 1.42516,10.59541 -1.92784,-0.754109 -6.27387,-5.593441 -1.31795,-5.375896 z" />
    <path
       inkscape:connector-curvature="0"
       id="path672"
       style="fill:#00ff00;fill-opacity:1;fill-rule:evenodd;stroke:none;stroke-width:3.06489611"
       d="m 52.051824,149.0423 c -3.435802,-0.14421 -3.077165,-14.65325 -2.249644,-20.21907 0.634216,-4.39512 -2.059639,-5.02951 -13.433483,-9.1487 -11.551599,-4.17748 -2.99133,-18.74804 8.679815,-22.410597 12.955302,-3.748305 -0.465671,-8.164884 3.592097,-21.04964 1.281117,-7.518244 5.93974,-14.975151 13.372061,-17.598635 10.583159,-9.709591 26.171153,-6.537467 38.63611,-11.864276 9.78014,-3.769765 19.3456,0.0947 28.30126,3.592098 7.5059,-0.527356 17.89897,6.669175 9.28049,13.516192 -7.26995,7.374111 -16.83549,11.781481 -25.52747,17.157289 -9.10891,0.527355 -17.417838,5.709858 -18.987045,15.41945 -3.159961,18.199409 -9.878224,26.817879 -12.547666,0.741946 -3.230421,-7.542743 -12.042031,0.873481 -9.265206,2.648071 1.915507,7.361862 12.284075,15.848552 0.5734,21.727032 -3.950646,5.00492 -2.464234,9.98543 -6.451631,16.46461 -0.585564,1.72246 -7.493656,12.66416 -13.972828,11.02442 z" />
    <path
       inkscape:connector-curvature="0"
       id="path674"
       style="fill:#00ff00;fill-opacity:1;fill-rule:evenodd;stroke:none;stroke-width:3.06489611"
       d="m 142.89836,145.91919 c -6.54963,-3.53381 -12.65496,-11.31555 -20.91481,-8.93108 -6.64467,6.97874 -20.16095,7.53041 -24.028799,-2.74311 -3.867937,-10.12948 -3.077165,-24.21881 7.086019,-30.34855 9.31734,-4.251079 18.96559,6.18795 28.20933,1.38832 5.35131,-3.22121 6.91748,-18.772454 14.77281,-8.955567 4.34603,6.990977 1.37608,15.456287 2.40594,23.167487 0.31277,7.67149 1.01753,15.3337 1.74697,22.99599 -0.9317,4.04873 -6.03175,4.26323 -9.27746,3.42651 z" />
    <path
       inkscape:connector-curvature="0"
       id="path676"
       style="fill:#00ff00;fill-opacity:1;fill-rule:evenodd;stroke:none;stroke-width:3.06489611"
       d="m 115.85373,91.695079 c -0.72979,-9.602382 12.10328,-10.966209 19.20154,-10.500363 -2.3936,3.570637 -9.4797,13.816532 -16.66381,12.14003 l -1.25661,-0.64638 z" />
    <path
       inkscape:connector-curvature="0"
       id="path678"
       style="fill:#00ffff;fill-opacity:1;fill-rule:evenodd;stroke:none;stroke-width:3.06489611"
       d="m 161.92215,92.246761 c -0.63421,-11.147091 10.06824,3.291668 0,0 z" />
    <path
       style="fill:#5599ff;fill-opacity:1;fill-rule:evenodd;stroke:none;stroke-width:11.58385944"
       d="m 303.31445,59.617188 c -12.13105,-0.06303 -24.09195,1.551218 -35.69531,6.871093 -18.00143,19.321765 -42.16669,31.624322 -65.38086,44.158199 -8.42149,3.53285 -46.9718,34.43771 -22.76172,27.60352 22.88975,-23.30676 56.61063,-30.09433 87.73633,-34.84375 29.09873,-1.62178 55.47476,-14.525569 84.16797,-18.417969 29.05209,-4.969417 58.68428,-2.21356 84.07617,13.667969 25.64667,7.78446 74.42621,4.93579 70.76563,43.89258 -19.68099,40.54344 -62.85469,59.64386 -98.50977,83.39062 0.637,7.42524 31.76365,-7.69155 43.8457,-10.30859 30.90569,-13.07798 45.52446,29.17913 12.89258,38.68945 -20.13282,21.6272 -63.07415,44.06608 -83.70508,11.66602 9.13958,-37.0106 -37.46288,-26.23803 -48.18945,-4.06641 -28.00955,21.31427 -21.2205,92.48585 -40.32226,93.21485 -36.79027,-2.62954 -28.63586,-82.76569 -48.18946,-74.2168 -16.47225,7.2049 1.58721,21.99682 9.41797,49.23047 17.90851,30.50048 -14.39987,58.60248 -24.58203,74.26367 -10.21697,25.19482 -40.35762,101.53281 -83.79688,88.59375 -9.00464,-9.23252 -10.13395,-36.38478 -8.87304,-63.21289 C 137.8905,393.50051 132.33091,396.35 93.814453,381.96289 73.239146,374.2528 65.489625,349.24577 70.103516,327.42773 59.101035,378.34262 62.381586,431.87848 86.076172,479.11719 130.6046,553.01066 218.61762,586.40662 301.01367,593.82031 v -0.002 c 33.44263,2.03943 67.24453,2.75815 100.50195,-2.39648 62.48323,-15.8815 128.77731,-32.52918 178.41407,-76.1543 26.92104,-28.19509 46.4751,-63.39809 61.09375,-99.41211 10.40213,-30.14128 14.9793,-62.99202 13.07812,-94.84766 -4.21648,-33.1182 -47.70135,-56.6456 -31.94726,-92.98437 -15.9741,-33.0371 -33.08365,-67.10482 -61.71875,-91.03711 C 504.63615,99.385335 440.02005,73.947459 373.32031,64.216797 350.24855,65.973014 326.47374,59.737526 303.31445,59.617188 Z M 70.103516,327.42773 c 0.06002,-0.27773 0.114914,-0.5564 0.175781,-0.83398 -0.06282,0.27699 -0.116978,0.55592 -0.175781,0.83398 z M 601.3125,208.91406 c 3.43796,-0.10674 7.18354,3.26902 9.75586,13.31836 -26.42246,13.89186 -19.2608,-13.02325 -9.75586,-13.31836 z m -488.875,4.27735 c -0.45069,0.38963 2.70684,8.47231 -0.87695,15.0664 -19.17673,29.57688 -33.601714,63.31985 -41.2793,98.32813 2.585072,-11.39032 8.560476,-21.83359 17.878906,-28.375 24.430424,-17.20188 36.154624,-14.89509 51.769534,-25.51758 10.04326,-6.78788 -5.02843,-28.28812 -15.02539,-42.13086 -9.58344,-13.32357 -12.11626,-17.67414 -12.4668,-17.37109 z m 458.54883,33.53125 c 17.61385,0.13574 41.04946,18.94875 12.52344,30.48828 -8.64148,6.97341 -23.35257,2.03747 -26.46875,-8.50391 -3.98395,-16.26048 4.06437,-22.06052 13.94531,-21.98437 z m -68.37305,13.4082 c 11.17635,-0.0398 21.83801,6.21716 27.86524,21.4707 13.3909,36.15324 2.57124,75.55984 7.6914,113.08008 1.66806,27.82435 19.41495,68.01009 -12.85742,84.98047 -29.81684,9.85773 -55.104,-13.40352 -77.28711,-29.59766 -33.83633,-14.52638 -61.39521,27.69723 -95.33594,16.97071 -42.98777,-22.90126 -53.26192,-86.16035 -34.16015,-128.96289 9.68403,-27.87066 35.87567,-44.981 65.78515,-38.14649 25.43815,3.57914 62.04176,30.76631 77.87696,-3.89258 4.29887,-20.45673 22.98677,-35.8403 40.42187,-35.90234 z m 87.90234,99.71484 0.50782,0.7461 c 0.3188,-0.034 0.72118,-0.16564 0.92187,-0.1543 h 0.008 c 0.6827,0.0382 1.08226,0.2427 1.24024,0.28125 l 0.16211,0.0371 0.14844,0.082 c 2.73373,1.40345 4.69071,3.36095 6.83593,4.90039 l 0.0664,0.0449 0.0586,0.0586 c 0.33782,0.3089 0.78435,0.65505 1.24024,1.13672 2.31847,2.44981 3.74181,5.44889 5.02734,8.22265 l 0.008,0.008 c 0.6494,1.4222 3.15092,2.41209 3.67579,4.01563 0.92023,2.81204 1.14606,5.6682 1.26171,8.43164 l 0.008,0.0293 v 0.0312 c 0.001,4.13106 -0.0167,8.21335 0.45703,12.20117 0.18618,1.10479 0.20765,1.44134 0.49414,2.42969 0.38079,1.31293 -0.8641,2.73757 -0.38281,4.45117 0.19442,0.43018 0.32027,0.76787 0.43554,0.97461 0.65197,1.17063 2.34166,2.30391 3.22657,4.51758 0.68156,1.50413 1.26867,3.12557 1.39453,4.95898 0.0582,0.86211 -0.0161,1.61812 -0.0312,2.25977 v 0.008 c -0.048,2.7809 -0.0405,2.36192 -0.11719,5.28515 v 0.008 c -0.20334,6.47338 -0.31766,13.13488 -1.89649,19.67187 l -0.0156,0.0449 -0.0156,0.0449 c -0.82916,2.63153 -1.6464,5.45278 -3.01954,8.09765 -1.39287,2.68282 -3.24829,5.02592 -5.02539,7.23438 l -0.0312,0.0371 -0.0371,0.0371 c -0.51156,0.55033 -1.3653,1.50105 -2.25976,2.42968 -0.89443,0.92863 -1.78296,1.82235 -2.64258,2.40625 -2.85853,1.94166 -5.82572,3.64433 -8.74805,5.34375 -2.82807,1.64459 -5.89843,2.77854 -9.41797,2.42969 l -0.24414,-0.0312 -0.2207,-0.10352 c -0.46129,-0.21776 -1.31612,-0.38648 -2.20117,-1.07031 -0.74207,-0.57328 -1.19349,-1.28845 -1.53516,-1.91797 -1.7159,-3.16214 -0.73266,-6.6115 0.16992,-9.25781 l 0.0234,-0.0742 0.0293,-0.0664 c 0.59104,-1.27627 0.83803,-1.82267 0.90039,-1.96289 0.004,-0.007 0.006,-0.004 0.008,-0.008 0.003,-0.008 -0.001,-0.005 0,-0.008 0.008,-0.0178 0.0159,-0.0357 0.0234,-0.0508 l 0.0156,-0.0312 c 0.004,-0.008 0.0101,-0.0182 0.0215,-0.0371 0.004,-0.0102 0.0233,-0.0447 0.0234,-0.0449 0,0 0.11366,0.0589 0.125,0.0664 0.13118,-0.23675 0.26989,-0.48409 0.50195,-0.92187 0.20659,-0.38963 0.39729,-0.88502 0.64258,-1.44727 0.77185,-1.77048 1.48158,-3.42051 1.71289,-5.09375 v -0.0293 l 0.008,-0.0391 c 0.47864,-2.54464 1.00954,-5.0276 1.16602,-7.45507 0.19423,-3.0169 -0.10425,-6.13041 -0.28907,-9.32422 -0.2739,-3.25618 -0.59497,-6.46571 -1.13671,-9.64063 -0.4949,-2.90018 -0.6616,-3.42156 -1.29883,-6.29687 -0.20773,-0.93736 -0.40881,-1.87258 -0.61328,-2.80469 -1.74906,-6.52161 -4.00553,-13.1129 -4.58985,-20.18164 v -0.008 -0.0156 c -0.0801,-1.22751 -0.20622,-2.49317 -0.25195,-3.80859 -0.0949,-2.71 0.0171,-4.83686 0.1543,-7.48438 0.16236,-3.11505 0.31481,-6.35391 1.10156,-9.57422 v -0.0156 l 0.006,-0.0234 c 0.67665,-2.47914 1.2403,-4.26142 2.59961,-6.59179 0.17083,-0.29292 0.50787,-0.85474 0.9082,-1.43165 0.40037,-0.5769 0.71622,-1.1246 1.46094,-1.61718 2.40007,-1.58748 4.88245,-2.92691 7.24218,-4.33985 z m -63.75976,121.00196 c 21.19928,0.17707 34.6381,46.17395 2.22852,52.51562 -29.50421,15.16339 -60.76933,-36.10559 -19.32227,-42.30273 5.78129,-7.32483 11.69001,-10.25803 17.09375,-10.21289 z"
       transform="matrix(0.26458333,0,0,0.26458333,11.271273,21.175637)"
       id="path680"
       inkscape:connector-curvature="0"
       sodipodi:nodetypes="sccccccccccccccccccccccccccccccscccscscccccccsccssccccccccscccccccccccccccccccccccccccccccccccccccccccccccccccccccccccccccccccccccccscsccs" />
    <path
       inkscape:connector-curvature="0"
       id="path682"
       style="fill:#00ff00;fill-opacity:1;fill-rule:evenodd;stroke:none;stroke-width:3.06489611"
       d="m 146.57317,159.95031 c -9.06287,-5.36356 12.60596,-12.799 5.95208,-2.87491 -0.79061,2.26502 -3.60435,4.44412 -5.95208,2.87491 z" />
    <path
       inkscape:connector-curvature="0"
       id="path684"
       style="fill:#00ff00;fill-opacity:1;fill-rule:evenodd;stroke:none;stroke-width:3.06489611"
       d="m 162.22259,92.498015 c -1.79605,-8.741066 9.87509,0.190264 0,0 z" />
    <path
       inkscape:connector-curvature="0"
       id="path686"
       style="fill:#00ff00;fill-opacity:1;fill-rule:evenodd;stroke:none;stroke-width:3.06489611"
       d="m 180.08481,91.397779 c -4.74142,-6.525217 1.42516,-2.911661 0,0 z" />
    <path
       inkscape:connector-curvature="0"
       id="path688"
       style="fill:#000000;fill-opacity:1;fill-rule:nonzero;stroke:none;stroke-width:3.06489611"
       d="M 87.862024,34.709439 C 69.484954,40.695138 53.740577,53.766944 44.104485,70.479848 33.006568,87.217251 23.643276,106.63643 25.427075,127.26628 c 0.64638,14.38966 7.386361,28.67205 19.584687,36.75422 19.768523,15.2172 46.105181,18.07673 70.232078,15.87617 17.92043,-2.79212 35.68761,-8.95565 50.48492,-19.57557 10.16631,-9.73408 16.4984,-22.90389 20.41221,-36.25153 3.04346,-16.52291 -0.74195,-33.906949 -9.59926,-48.094369 C 170.11162,61.836869 157.98377,50.187184 143.05465,45.494765 128.31564,38.932885 112.24947,35.043489 96.063744,35.54617 93.332877,35.269894 90.60514,34.948442 87.862024,34.709526 Z m -0.778435,1.697962 c 15.790331,1.750002 32.420451,0.6959 47.064501,7.879833 15.45629,5.363559 31.91785,13.801243 38.22543,29.928757 7.83075,13.062509 14.00958,28.086659 11.85195,43.604199 -1.21987,15.11919 -9.73105,28.63539 -19.33336,39.91419 -6.7888,7.15961 -17.89906,13.44573 -27.54731,7.97488 -11.20834,-4.49009 -23.59971,-3.25806 -35.36894,-3.23347 -11.64656,2.0718 -24.387359,1.86651 -34.526046,8.82378 C 57.249878,173.63504 50.222066,163.73242 42.474028,158.95728 26.864487,145.11617 25.295279,121.69733 30.946929,102.77162 36.236901,85.399743 46.90581,70.302093 57.534928,55.826584 c 7.640743,-7.159608 18.07977,-10.451278 25.527468,-17.862226 1.244368,-0.741946 2.60828,-1.281117 4.021193,-1.556957 z M 106.15638,164.66715 c 10.36857,1.4712 22.27872,-2.21595 31.23438,4.8487 -2.35685,6.76423 -13.45798,5.80492 -19.60919,7.91355 -14.70235,2.21593 -30.002254,2.05964 -44.30922,-2.35998 -0.230229,-10.40227 13.779783,-3.63806 19.452893,-8.17714 4.180527,-1.67346 8.716567,-2.56223 13.231137,-2.22513 z" />
    <path
       inkscape:connector-curvature="0"
       id="path690"
       style="fill:#ffffff;fill-opacity:1;fill-rule:evenodd;stroke:none;stroke-width:3.06489611"
       d="m 96.505089,178.45918 c -5.409605,-0.19287 -12.10328,-1.17382 -18.735793,-2.73078 -3.040329,-0.7046 -3.736056,-1.07583 -4.370532,-2.32323 -0.527355,-1.01753 -0.465671,-1.59068 0.19287,-2.21281 0.622054,-0.58817 1.722463,-0.99303 3.506262,-1.29346 0.658542,-0.1069 1.795962,-0.32492 2.525484,-0.46566 0.744553,-0.14423 2.359892,-0.26325 3.61651,-0.26325 3.662555,0 4.873214,-0.23022 8.955656,-1.68876 7.208607,-2.58672 9.541044,-2.88707 20.209954,-2.58672 15.28766,0.43179 17.20325,0.576 20.42446,1.58145 1.11257,0.34664 2.87179,0.89806 3.9139,1.21986 1.94001,0.58818 3.48471,1.4865 4.15594,2.40595 0.44134,0.58817 0.28497,1.00528 -0.46914,1.28112 -9.32646,3.42346 -17.7764,5.74668 -23.89701,6.56196 -3.24268,0.44135 -14.41418,0.72979 -20.029082,0.5152 z" />
    <path
       style="opacity:1;fill:#00ff00;fill-opacity:1;stroke:none;stroke-width:0.37880719;stroke-miterlimit:4;stroke-dasharray:none;stroke-dashoffset:0;stroke-opacity:1"
       d="m 167.76542,144.62883 c -0.2442,-0.4563 -0.15053,-0.96006 0.40128,-2.15797 0.79305,-1.7216 0.98715,-2.74905 0.98248,-5.20073 -0.006,-3.05824 -0.29897,-4.78984 -1.60633,-9.48807 -0.5906,-2.12243 -0.59834,-6.62374 -0.0138,-8.02497 l 0.16485,-0.39518 0.81465,0.72792 c 0.92276,0.82453 1.67125,2.09792 1.97835,3.36572 0.10461,0.43185 0.22733,1.80411 0.27271,3.04946 0.0741,2.03282 0.12218,2.37803 0.47067,3.37729 0.2135,0.61217 0.56386,1.33719 0.77858,1.61115 0.71598,0.9135 0.73331,0.99536 0.71183,3.3623 -0.0397,4.37804 -0.47868,6.1035 -2.09484,8.23443 -1.10864,1.46175 -2.5008,2.21061 -2.86043,1.53865 z"
       id="path7008"
       inkscape:connector-curvature="0" />
    <path
       id="path7012"
       d="m 166.49648,117.77179 c 0.48687,-0.26747 0.95465,-0.57308 1.46061,-0.80242 0.12006,-0.0544 -0.20081,0.17214 -0.28808,0.27093 -0.10237,0.1159 -0.19341,0.24185 -0.27877,0.37079 -0.35255,0.53252 -0.51709,1.00994 -0.70785,1.614 -0.42425,1.76891 -0.44031,3.57332 -0.34132,5.37883 0.12227,1.80005 0.75225,3.49687 1.21971,5.22241 0.42419,1.65968 0.65686,3.3535 0.8274,5.05488 0.0452,0.84502 0.12473,1.69172 0.0849,2.53901 -0.032,0.68092 -0.15123,1.35517 -0.26131,2.02643 -0.11716,0.6496 -0.32459,1.28919 -0.61693,1.88226 -0.13097,0.2657 -0.28313,0.52051 -0.41784,0.78433 -0.24545,0.62296 -0.49896,1.37745 -0.13983,2.0157 0.0705,0.12526 0.15787,0.24961 0.27636,0.33094 0.13258,0.091 0.30126,0.11263 0.45189,0.16895 0.21442,-0.0167 0.43256,-0.007 0.64327,-0.0501 0.24791,-0.0507 0.49133,-0.12912 0.72361,-0.2295 0.26128,-0.1129 1.03251,-0.44544 0.75043,-0.40744 -0.31408,0.0423 -0.60848,0.62355 -0.85237,0.42118 -0.2257,-0.1873 0.45122,-0.37552 0.66353,-0.57788 0.20257,-0.19307 0.38653,-0.40477 0.57979,-0.60716 0.46765,-0.5685 0.93153,-1.15435 1.28183,-1.80541 0.34791,-0.64661 0.57279,-1.3473 0.79565,-2.04315 0.44898,-1.65766 0.49219,-3.38336 0.53106,-5.08943 -0.0335,-0.63257 0.0529,-1.30333 -0.003,-1.93458 -0.0348,-0.39197 -0.16701,-0.75246 -0.33745,-1.10121 -0.19543,-0.43054 -0.60723,-0.71039 -0.83043,-1.12454 -0.0551,-0.10218 -0.0928,-0.21282 -0.13915,-0.31923 -0.10835,-0.4296 -0.33281,-0.81728 -0.45683,-1.2417 -0.08,-0.27381 -0.0998,-0.44222 -0.14766,-0.72486 -0.0975,-1.10543 -0.0968,-2.21759 -0.11014,-3.32665 -0.0265,-0.70429 -0.0815,-1.4083 -0.2973,-2.08342 -0.13767,-0.43068 -0.22275,-0.58685 -0.40912,-0.99876 -0.34423,-0.70572 -0.68977,-1.45634 -1.25419,-2.0199 -0.0927,-0.0925 -0.19961,-0.16961 -0.29941,-0.25441 -0.42712,-0.26949 -0.78449,-0.63499 -1.1983,-0.92114 -0.23403,-0.16183 -0.29652,-0.1772 -0.55012,-0.29295 -0.0784,-0.002 -0.15833,-0.0224 -0.2353,-0.007 -0.0804,0.0159 -0.15024,0.0656 -0.22537,0.0984 0.48847,-0.26919 0.96436,-0.56258 1.4654,-0.80758 0.0798,-0.039 -0.136,0.1158 -0.19184,0.18484 -0.0579,0.0715 -0.0979,0.15585 -0.14679,0.23378 0,0 -1.77924,0.79696 -1.77924,0.79696 v 0 c 0.46512,-0.97229 0.8654,-0.90625 2.20348,-1.59826 0.0817,-0.0422 0.18173,-0.0404 0.27355,-0.0356 0.089,0.005 0.17308,0.0425 0.25962,0.0637 0.65881,0.33822 1.16301,0.83843 1.76159,1.26798 0.10279,0.094 0.21265,0.18074 0.30838,0.28189 0.5599,0.59161 0.92417,1.3457 1.26255,2.07581 0.17474,0.38268 0.29722,0.62245 0.42837,1.02315 0.22571,0.68965 0.28626,1.40849 0.3164,2.1291 2.7e-4,1.09504 -0.005,2.19502 0.12518,3.2839 0.0497,0.29382 0.0602,0.40877 0.14212,0.69136 0.12177,0.41986 0.3371,0.805 0.44638,1.22883 0.0429,0.095 0.0781,0.19387 0.12879,0.28493 0.23249,0.41743 0.65814,0.70409 0.83645,1.15623 0.17361,0.38162 0.31177,0.77139 0.34091,1.19569 0.0129,0.18813 -0.005,0.37711 -0.009,0.56565 -0.0128,0.73894 -0.0115,0.62117 -0.0318,1.39627 -0.0539,1.71587 -0.087,3.45151 -0.49196,5.12822 -0.22101,0.70142 -0.43284,1.42666 -0.77337,2.08257 -0.34639,0.66719 -0.82108,1.26795 -1.28985,1.8505 -0.27993,0.30115 -0.89248,0.99291 -1.2327,1.22401 -0.74086,0.50324 -1.51855,0.95061 -2.29277,1.40084 -0.71218,0.41415 -1.4347,0.67521 -2.26748,0.59264 -0.17051,-0.0805 -0.3623,-0.12635 -0.51152,-0.24164 -0.13065,-0.10094 -0.22695,-0.24461 -0.30569,-0.38972 -0.36772,-0.67768 -0.1627,-1.46937 0.0692,-2.14927 0.62683,-1.35376 -0.21549,0.41797 0.41777,-0.77625 0.0698,-0.13166 0.12229,-0.27182 0.18185,-0.40843 0.20369,-0.46721 0.41042,-0.93455 0.48099,-1.44492 0.12547,-0.66709 0.26923,-1.33916 0.31301,-2.01818 0.0542,-0.84127 -0.0266,-1.68376 -0.0749,-2.52272 -0.0728,-0.86552 -0.15903,-1.72488 -0.30526,-2.58179 -0.13204,-0.7738 -0.17928,-0.92825 -0.34699,-1.685 -0.0559,-0.25223 -0.11072,-0.50469 -0.16609,-0.75703 -0.4671,-1.74169 -1.054,-3.46366 -1.20357,-5.27313 -0.0217,-0.33236 -0.0535,-0.66422 -0.0651,-0.99709 -0.0245,-0.7004 0.003,-1.24801 0.0393,-1.94818 0.043,-0.8249 0.084,-1.65621 0.2809,-2.46216 0.17753,-0.65045 0.30771,-1.0691 0.64905,-1.65428 0.0823,-0.14112 0.34823,-0.57627 0.51037,-0.68351 0.61631,-0.40765 1.26795,-0.7592 1.90192,-1.1388 0,0 -1.5498,1.2187 -1.5498,1.2187 z"
       style="opacity:1;fill:#000000;fill-opacity:1;stroke:#000000;stroke-width:0.75;stroke-miterlimit:4;stroke-dasharray:none;stroke-dashoffset:0;stroke-opacity:1"
       inkscape:connector-curvature="0" />
  </g>
</svg>
